<svg width="28" height="29" viewBox="0 0 28 29" fill="none" xmlns="http://www.w3.org/2000/svg">
<g clip-path="url(#clip0_707_7444)">
<path d="M18.4157 8.38495C19.4746 9.31956 20.0939 10.5789 20.2341 11.9841C20.2546 12.37 20.2527 12.7564 20.2512 13.1428C20.251 13.2239 20.251 13.2239 20.2509 13.3067C20.2478 14.3133 20.1942 15.3056 20.07 16.3044C20.0655 16.341 20.061 16.3777 20.0564 16.4155C19.6237 19.892 18.6825 23.7256 16.2423 26.3549C16.1298 26.4761 16.1298 26.4761 16.0264 26.6136C15.8221 26.8605 15.5636 27.0452 15.3122 27.2419C15.2418 27.2981 15.2418 27.2981 15.1699 27.3555C14.1586 28.1316 12.9314 28.5234 11.6618 28.5168C11.5992 28.5165 11.5366 28.5162 11.4722 28.5159C10.077 28.4959 8.84088 27.9677 7.84032 26.9924C6.83693 25.9384 6.13629 24.3493 6.16595 22.8859C6.24011 21.877 6.69135 21.1121 7.24896 20.3025C7.78282 19.5221 8.14959 18.813 7.98067 17.8493C7.85492 17.2198 7.58981 16.6635 7.30848 16.0912C6.7809 15.0159 6.34788 13.9046 6.28878 12.695C6.28652 12.6528 6.28427 12.6106 6.28194 12.5671C6.24724 11.2636 6.67958 9.95462 7.54659 8.97626C7.58582 8.92635 7.58582 8.92635 7.62585 8.87543C8.6767 7.55057 10.5392 6.92348 12.154 6.71845C14.3409 6.47399 16.7067 6.93401 18.4157 8.38495Z" fill="#C8CAC9"/>
<path d="M8.47663 0.718707C8.52872 0.743169 8.58082 0.767631 8.63449 0.792834C9.46563 1.21577 9.98822 1.91756 10.2813 2.79683C10.5942 3.8737 10.4914 5.14605 9.97113 6.14409C9.87985 6.29171 9.78382 6.43143 9.67975 6.57027C9.65395 6.60601 9.62815 6.64175 9.60157 6.67858C9.2054 7.18553 8.64797 7.44572 8.03571 7.59566C7.23073 7.66417 6.51329 7.50657 5.86829 7.00179C4.96896 6.22326 4.58822 5.16847 4.48444 3.99996C4.42416 3.00172 4.60663 2.06946 5.27057 1.29293C6.09293 0.44842 7.40117 0.210108 8.47663 0.718707Z" fill="#C8CAC9"/>
<path d="M14.7109 1.26579C15.2591 1.70683 15.5913 2.32125 15.6953 3.01579C15.7866 3.95511 15.6525 4.89806 15.0493 5.65596C14.665 6.07199 14.1609 6.31098 13.599 6.36369C12.9556 6.38801 12.3751 6.17177 11.8992 5.7397C11.1957 5.00678 10.9726 4.06118 10.9838 3.07133C11.0171 2.41249 11.2384 1.79701 11.7031 1.32048C12.6194 0.577663 13.7476 0.62017 14.7109 1.26579Z" fill="#C8CAC9"/>
<path d="M19.4784 2.54292C19.9811 2.89607 20.2788 3.34874 20.4429 3.94194C20.4463 3.99721 20.4496 4.05248 20.4531 4.10942C20.4565 4.15581 20.4599 4.20219 20.4634 4.24998C20.4953 5.01378 20.2198 5.6842 19.7217 6.25249C19.2775 6.72522 18.8523 7.07474 18.1812 7.12834C17.6066 7.13853 17.1626 7.01823 16.7344 6.62505C16.2719 6.16899 16.1122 5.68587 16.0781 5.03911C16.1069 4.18275 16.4524 3.33601 17.0713 2.73732C17.7802 2.14594 18.6846 2.04842 19.4784 2.54292Z" fill="#C8CAC9"/>
<path d="M22.7909 5.94814C23.2072 6.24679 23.4225 6.67503 23.5155 7.17177C23.5837 7.68835 23.449 8.24547 23.143 8.66884C23.0862 8.73607 23.0281 8.8022 22.9686 8.86708C22.9406 8.90008 22.9125 8.93307 22.8836 8.96706C22.5171 9.37043 21.9954 9.65148 21.4515 9.70107C20.9481 9.72156 20.5595 9.61162 20.1625 9.29775C19.8327 8.98803 19.6606 8.58523 19.6216 8.13842C19.6067 7.38592 19.9254 6.79743 20.4319 6.25832C21.1122 5.60357 21.9681 5.44945 22.7909 5.94814Z" fill="#C8CAC9"/>
</g>
<defs>
<clipPath id="clip0_707_7444">
<rect width="28" height="28" fill="white" transform="translate(0 0.5)"/>
</clipPath>
</defs>
</svg>
