<svg width="3300" height="2200" viewBox="0 0 3300 2200" fill="none" xmlns="http://www.w3.org/2000/svg">
<g id="cloverCamera.fill" clip-path="url(#clip0_178_4024)">
<g id="Notes">
<path id="artboard" d="M3300 0H0V2200H3300V0Z" fill="white"/>
<path id="Vector" d="M263 292H3036" stroke="black" stroke-width="0.5"/>
<text id="Weight/Scale Variations" fill="black" xml:space="preserve" style="white-space: pre" font-family="Inter" font-size="13" font-weight="bold" letter-spacing="0em"><tspan x="263" y="321.727">Weight/Scale Variations</tspan></text>
<text id="Ultralight" fill="black" xml:space="preserve" style="white-space: pre" font-family="Inter" font-size="13" letter-spacing="0em"><tspan x="531.211" y="321.727">Ultralight</tspan></text>
<text id="Thin" fill="black" xml:space="preserve" style="white-space: pre" font-family="Inter" font-size="13" letter-spacing="0em"><tspan x="842.922" y="321.727">Thin</tspan></text>
<text id="Light" fill="black" xml:space="preserve" style="white-space: pre" font-family="Inter" font-size="13" letter-spacing="0em"><tspan x="1137.63" y="321.727">Light</tspan></text>
<text id="Regular" fill="black" xml:space="preserve" style="white-space: pre" font-family="Inter" font-size="13" letter-spacing="0em"><tspan x="1426.34" y="321.727">Regular</tspan></text>
<text id="Medium" fill="black" xml:space="preserve" style="white-space: pre" font-family="Inter" font-size="13" letter-spacing="0em"><tspan x="1721.56" y="321.727">Medium</tspan></text>
<text id="Semibold" fill="black" xml:space="preserve" style="white-space: pre" font-family="Inter" font-size="13" letter-spacing="0em"><tspan x="2014.27" y="321.727">Semibold</tspan></text>
<text id="Bold" fill="black" xml:space="preserve" style="white-space: pre" font-family="Inter" font-size="13" letter-spacing="0em"><tspan x="2325.98" y="321.727">Bold</tspan></text>
<text id="Heavy" fill="black" xml:space="preserve" style="white-space: pre" font-family="Inter" font-size="13" letter-spacing="0em"><tspan x="2617.19" y="321.727">Heavy</tspan></text>
<text id="Black" fill="black" xml:space="preserve" style="white-space: pre" font-family="Inter" font-size="13" letter-spacing="0em"><tspan x="2916.4" y="321.727">Black</tspan></text>
<path id="Vector_2" d="M263 1903H3036" stroke="black" stroke-width="0.5"/>
<g id="Group">
<path id="Vector_3" d="M272.248 1933.83C276.555 1933.83 280.139 1930.26 280.139 1925.95C280.139 1921.64 276.545 1918.07 272.238 1918.07C267.941 1918.07 264.367 1921.64 264.367 1925.95C264.367 1930.26 267.951 1933.83 272.248 1933.83ZM272.248 1932.35C268.703 1932.35 265.871 1929.5 265.871 1925.95C265.871 1922.39 268.693 1919.55 272.238 1919.55C275.793 1919.55 278.645 1922.39 278.645 1925.95C278.645 1929.5 275.803 1932.35 272.248 1932.35ZM268.654 1925.95C268.654 1926.38 268.957 1926.67 269.406 1926.67H271.506V1928.79C271.506 1929.23 271.799 1929.53 272.229 1929.53C272.678 1929.53 272.971 1929.23 272.971 1928.79V1926.67H275.09C275.529 1926.67 275.832 1926.38 275.832 1925.95C275.832 1925.51 275.529 1925.21 275.09 1925.21H272.971V1923.1C272.971 1922.65 272.678 1922.35 272.229 1922.35C271.799 1922.35 271.506 1922.65 271.506 1923.1V1925.21H269.406C268.957 1925.21 268.654 1925.51 268.654 1925.95Z" fill="black"/>
</g>
<g id="Group_2">
<path id="Vector_4" d="M293.215 1935.91C298.664 1935.91 303.176 1931.39 303.176 1925.95C303.176 1920.5 298.654 1915.99 293.205 1915.99C287.766 1915.99 283.254 1920.5 283.254 1925.95C283.254 1931.39 287.775 1935.91 293.215 1935.91ZM293.215 1934.25C288.605 1934.25 284.924 1930.56 284.924 1925.95C284.924 1921.34 288.596 1917.65 293.205 1917.65C297.814 1917.65 301.516 1921.34 301.516 1925.95C301.516 1930.56 297.824 1934.25 293.215 1934.25ZM288.684 1925.95C288.684 1926.43 289.016 1926.75 289.514 1926.75H292.385V1929.63C292.385 1930.12 292.717 1930.46 293.195 1930.46C293.684 1930.46 294.025 1930.13 294.025 1929.63V1926.75H296.906C297.395 1926.75 297.736 1926.43 297.736 1925.95C297.736 1925.46 297.395 1925.12 296.906 1925.12H294.025V1922.25C294.025 1921.75 293.684 1921.41 293.195 1921.41C292.717 1921.41 292.385 1921.75 292.385 1922.25V1925.12H289.514C289.016 1925.12 288.684 1925.46 288.684 1925.95Z" fill="black"/>
</g>
<g id="Group_3">
<path id="Vector_5" d="M319.895 1938.66C326.857 1938.66 332.619 1932.9 332.619 1925.95C332.619 1918.99 326.848 1913.22 319.885 1913.22C312.932 1913.22 307.18 1918.99 307.18 1925.95C307.18 1932.9 312.941 1938.66 319.895 1938.66ZM319.895 1936.85C313.859 1936.85 309.006 1931.98 309.006 1925.95C309.006 1919.9 313.85 1915.05 319.885 1915.05C325.93 1915.05 330.793 1919.9 330.793 1925.95C330.793 1931.98 325.939 1936.85 319.895 1936.85ZM314.123 1925.95C314.123 1926.47 314.494 1926.83 315.041 1926.83H318.986V1930.78C318.986 1931.32 319.357 1931.7 319.875 1931.7C320.412 1931.7 320.783 1931.33 320.783 1930.78V1926.83H324.738C325.275 1926.83 325.656 1926.47 325.656 1925.95C325.656 1925.4 325.285 1925.03 324.738 1925.03H320.783V1921.09C320.783 1920.54 320.412 1920.16 319.875 1920.16C319.357 1920.16 318.986 1920.54 318.986 1921.09V1925.03H315.041C314.494 1925.03 314.123 1925.4 314.123 1925.95Z" fill="black"/>
</g>
<text id="Design Variations" fill="black" xml:space="preserve" style="white-space: pre" font-family="Inter" font-size="13" font-weight="bold" letter-spacing="0em"><tspan x="263" y="1952.73">Design Variations</tspan></text>
<text id="Symbols are supported in up to nine weights and three scales." fill="black" xml:space="preserve" style="white-space: pre" font-family="Inter" font-size="13" letter-spacing="0em"><tspan x="263" y="1970.73">Symbols are supported in up to nine weights and three scales.</tspan></text>
<text id="For optimal layout with text and other symbols, vertically align" fill="black" xml:space="preserve" style="white-space: pre" font-family="Inter" font-size="13" letter-spacing="0em"><tspan x="263" y="1988.73">For optimal layout with text and other symbols, vertically align</tspan></text>
<text id="symbols with the adjacent text." fill="black" xml:space="preserve" style="white-space: pre" font-family="Inter" font-size="13" letter-spacing="0em"><tspan x="263" y="2006.73">symbols with the adjacent text.</tspan></text>
<path id="Vector_6" d="M776 1919V1933" stroke="#00AEEF" stroke-width="0.5"/>
<g id="Group_4">
<path id="Vector_7" d="M779.311 1933.16C779.828 1933.16 780.082 1932.96 780.268 1932.41L781.527 1928.97H787.289L788.549 1932.41C788.734 1932.96 788.988 1933.16 789.496 1933.16C790.014 1933.16 790.346 1932.84 790.346 1932.36C790.346 1932.19 790.316 1932.03 790.238 1931.83L785.658 1919.63C785.434 1919.04 785.033 1918.73 784.408 1918.73C783.803 1918.73 783.393 1919.03 783.178 1919.62L778.598 1931.84C778.52 1932.04 778.49 1932.2 778.49 1932.37C778.49 1932.85 778.803 1933.16 779.311 1933.16ZM782.006 1927.48L784.379 1920.91H784.428L786.801 1927.48H782.006Z" fill="black"/>
</g>
<path id="Vector_8" d="M792.836 1919V1933" stroke="#00AEEF" stroke-width="0.5"/>
<text id="Margins" fill="black" xml:space="preserve" style="white-space: pre" font-family="Inter" font-size="13" font-weight="bold" letter-spacing="0em"><tspan x="776" y="1952.73">Margins</tspan></text>
<text id="Leading and trailing margins on the left and right side of each symbol" fill="black" xml:space="preserve" style="white-space: pre" font-family="Inter" font-size="13" letter-spacing="0em"><tspan x="776" y="1970.73">Leading and trailing margins on the left and right side of each symbol</tspan></text>
<text id="can be adjusted by modifying the x-location of the margin guidelines." fill="black" xml:space="preserve" style="white-space: pre" font-family="Inter" font-size="13" letter-spacing="0em"><tspan x="776" y="1988.73">can be adjusted by modifying the x-location of the margin guidelines.</tspan></text>
<text id="Modifications are automatically applied proportionally to all" fill="black" xml:space="preserve" style="white-space: pre" font-family="Inter" font-size="13" letter-spacing="0em"><tspan x="776" y="2006.73">Modifications are automatically applied proportionally to all</tspan></text>
<text id="scales and weights." fill="black" xml:space="preserve" style="white-space: pre" font-family="Inter" font-size="13" letter-spacing="0em"><tspan x="776" y="2024.73">scales and weights.</tspan></text>
<g id="Group_5">
<path id="Vector_9" d="M1291.84 1934.87L1293.54 1936.57C1294.4 1937.44 1295.39 1937.38 1296.31 1936.36L1307.01 1924.57L1306.04 1923.6L1295.43 1935.28C1295.07 1935.68 1294.74 1935.77 1294.27 1935.3L1293.1 1934.14C1292.63 1933.68 1292.74 1933.34 1293.14 1932.98L1304.62 1922.18L1303.64 1921.21L1292.05 1932.1C1291.06 1933.02 1290.98 1934 1291.84 1934.87ZM1298.26 1916.67C1297.84 1917.08 1297.81 1917.66 1298.04 1918.05C1298.28 1918.41 1298.74 1918.64 1299.38 1918.48C1300.85 1918.14 1302.37 1918.08 1303.79 1919.02L1303.21 1920.47C1302.87 1921.3 1303.04 1921.89 1303.58 1922.43L1305.87 1924.75C1306.36 1925.24 1306.77 1925.26 1307.34 1925.16L1308.4 1924.96L1309.07 1925.64L1309.03 1926.19C1308.99 1926.69 1309.12 1927.07 1309.61 1927.55L1310.37 1928.29C1310.85 1928.77 1311.46 1928.8 1311.93 1928.33L1314.84 1925.41C1315.31 1924.94 1315.29 1924.35 1314.81 1923.87L1314.04 1923.11C1313.56 1922.63 1313.19 1922.47 1312.71 1922.51L1312.13 1922.56L1311.49 1921.93L1311.73 1920.8C1311.86 1920.24 1311.71 1919.8 1311.12 1919.21L1308.92 1917.02C1305.58 1913.7 1301.15 1913.78 1298.26 1916.67ZM1299.75 1917.04C1302.18 1915.27 1305.47 1915.57 1307.7 1917.8L1310.13 1920.21C1310.37 1920.44 1310.41 1920.63 1310.34 1920.97L1310.02 1922.45L1311.52 1923.94L1312.51 1923.88C1312.76 1923.87 1312.84 1923.89 1313.03 1924.08L1313.61 1924.66L1311.17 1927.1L1310.59 1926.53C1310.4 1926.33 1310.37 1926.25 1310.38 1925.99L1310.45 1925.01L1308.95 1923.53L1307.43 1923.78C1307.11 1923.85 1306.96 1923.82 1306.71 1923.59L1304.71 1921.58C1304.46 1921.35 1304.43 1921.18 1304.59 1920.81L1305.46 1918.72C1303.9 1917.27 1301.87 1916.64 1299.84 1917.24C1299.68 1917.28 1299.62 1917.15 1299.75 1917.04Z" fill="black"/>
</g>
<text id="Exporting" fill="black" xml:space="preserve" style="white-space: pre" font-family="Inter" font-size="13" font-weight="bold" letter-spacing="0em"><tspan x="1289" y="1952.73">Exporting</tspan></text>
<text id="Symbols should be outlined when exporting to ensure the" fill="black" xml:space="preserve" style="white-space: pre" font-family="Inter" font-size="13" letter-spacing="0em"><tspan x="1289" y="1970.73">Symbols should be outlined when exporting to ensure the</tspan></text>
<text id="design is preserved when submitting to Xcode." fill="black" xml:space="preserve" style="white-space: pre" font-family="Inter" font-size="13" letter-spacing="0em"><tspan x="1289" y="1988.73">design is preserved when submitting to Xcode.</tspan></text>
<text id="template-version" fill="black" xml:space="preserve" style="white-space: pre" font-family="Inter" font-size="13" letter-spacing="0em"><tspan x="2946" y="1932.73">Template v.5.0</tspan></text>
<text id="Requires Xcode 15 or greater" fill="black" xml:space="preserve" style="white-space: pre" font-family="Inter" font-size="13" letter-spacing="0em"><tspan x="2858" y="1950.73">Requires Xcode 15 or greater</tspan></text>
<text id="descriptive-name" fill="black" xml:space="preserve" style="white-space: pre" font-family="Inter" font-size="13" letter-spacing="0em"><tspan x="2838" y="1968.73">Generated from square.grid.2x2</tspan></text>
<text id="Typeset at 100.0 points" fill="black" xml:space="preserve" style="white-space: pre" font-family="Inter" font-size="13" letter-spacing="0em"><tspan x="2892" y="1986.73">Typeset at 100.0 points</tspan></text>
<text id="Small" fill="black" xml:space="preserve" style="white-space: pre" font-family="Inter" font-size="13" letter-spacing="0em"><tspan x="263" y="725.727">Small</tspan></text>
<text id="Medium_2" fill="black" xml:space="preserve" style="white-space: pre" font-family="Inter" font-size="13" letter-spacing="0em"><tspan x="263" y="1155.73">Medium</tspan></text>
<text id="Large" fill="black" xml:space="preserve" style="white-space: pre" font-family="Inter" font-size="13" letter-spacing="0em"><tspan x="263" y="1585.73">Large</tspan></text>
</g>
<g id="Guides">
<g id="H-reference">
<path id="Vector_10" d="M339.994 696H342.638L368.329 628.868H369.031V625.541H367.123L339.994 696ZM350.689 671.52H385.982L385.232 669.272H351.439L350.689 671.52ZM394.12 696H396.764L369.639 625.541H368.433V628.868L394.12 696Z" fill="#27AAE1"/>
</g>
<path id="Baseline-S" d="M263 696H3036" stroke="#27AAE1" stroke-width="0.5"/>
<path id="Capline-S" d="M263 625.541H3036" stroke="#27AAE1" stroke-width="0.5"/>
<g id="H-reference_2">
<path id="Vector_11" d="M339.994 1126H342.638L368.329 1058.87H369.031V1055.54H367.123L339.994 1126ZM350.689 1101.52H385.982L385.232 1099.27H351.439L350.689 1101.52ZM394.12 1126H396.764L369.639 1055.54H368.433V1058.87L394.12 1126Z" fill="#27AAE1"/>
</g>
<path id="Baseline-M" d="M263 1126H3036" stroke="#27AAE1" stroke-width="0.5"/>
<path id="Capline-M" d="M263 1055.54H3036" stroke="#27AAE1" stroke-width="0.5"/>
<g id="H-reference_3">
<path id="Vector_12" d="M339.994 1556H342.638L368.329 1488.87H369.031V1485.54H367.123L339.994 1556ZM350.689 1531.52H385.982L385.232 1529.27H351.439L350.689 1531.52ZM394.12 1556H396.764L369.639 1485.54H368.433V1488.87L394.12 1556Z" fill="#27AAE1"/>
</g>
<path id="Baseline-L" d="M263 1556H3036" stroke="#27AAE1" stroke-width="0.5"/>
<path id="Capline-L" d="M263 1485.54H3036" stroke="#27AAE1" stroke-width="0.5"/>
<path id="left-margin-Ultralight-S" d="M516.35 600.785V720.121" stroke="#00AEEF" stroke-width="0.5"/>
<path id="right-margin-Ultralight-S" d="M603.073 600.785V720.121" stroke="#00AEEF" stroke-width="0.5"/>
<path id="left-margin-Regular-S" d="M1404.51 600.785V720.121" stroke="#00AEEF" stroke-width="0.5"/>
<path id="right-margin-Regular-S" d="M1495.18 600.785V720.121" stroke="#00AEEF" stroke-width="0.5"/>
<path id="left-margin-Black-S" d="M2885.5 600.785V720.121" stroke="#00AEEF" stroke-width="0.5"/>
<path id="right-margin-Black-S" d="M2981.3 600.785V720.121" stroke="#00AEEF" stroke-width="0.5"/>
</g>
<g id="Symbols">
<g id="Black-S">
<path id="Subtract" d="M2889.5 650.858C2889.5 643.908 2895.13 638.274 2902.08 638.274C2906.8 638.274 2911.18 635.83 2913.65 631.816L2915.06 629.52C2916.6 627.022 2919.33 625.5 2922.26 625.5H2943.74C2946.67 625.5 2949.4 627.022 2950.94 629.52L2952.35 631.816C2954.82 635.83 2959.2 638.274 2963.92 638.274C2970.87 638.274 2976.5 643.908 2976.5 650.858V671.028C2976.5 675.899 2976.5 679.516 2976.22 682.36C2975.95 685.197 2975.4 687.212 2974.35 688.894C2973.22 690.681 2971.71 692.192 2969.93 693.314C2968.24 694.371 2966.23 694.916 2963.39 695.191C2960.55 695.467 2956.93 695.468 2952.06 695.468H2913.94C2909.07 695.468 2905.45 695.467 2902.61 695.191C2899.77 694.916 2897.76 694.371 2896.07 693.314C2894.29 692.192 2892.78 690.681 2891.65 688.894C2890.6 687.212 2890.05 685.197 2889.78 682.36C2889.5 679.516 2889.5 675.899 2889.5 671.028V650.858ZM2917.17 665.232C2915.24 667.242 2914.05 670.02 2914.05 673.083C2914.05 679.194 2918.8 684.183 2924.71 684.183C2928.06 684.183 2931.05 682.577 2933 680.076C2934.95 682.577 2937.93 684.183 2941.28 684.183C2947.19 684.183 2951.95 679.194 2951.95 673.083C2951.95 670.02 2950.76 667.242 2948.82 665.232C2950.76 663.221 2951.95 660.444 2951.95 657.381C2951.95 651.27 2947.19 646.281 2941.28 646.281C2937.93 646.281 2934.95 647.887 2933 650.388C2931.05 647.887 2928.06 646.281 2924.71 646.281C2918.8 646.281 2914.05 651.27 2914.05 657.381C2914.05 660.444 2915.24 663.221 2917.17 665.232ZM2935.08 665.741C2934.28 665.741 2933.63 666.389 2933.63 667.188L2933.63 671.781C2933.63 672.028 2933.43 672.229 2933.18 672.229H2932.92C2932.67 672.229 2932.47 672.028 2932.47 671.781V667.188C2932.47 666.389 2931.82 665.741 2931.02 665.741H2926.43C2926.18 665.741 2925.98 665.541 2925.98 665.294V665.025C2925.98 664.778 2926.18 664.578 2926.43 664.578L2931.02 664.578C2931.82 664.578 2932.47 663.93 2932.47 663.131V658.536C2932.47 658.289 2932.67 658.089 2932.92 658.089H2933.18C2933.43 658.089 2933.63 658.289 2933.63 658.536V663.131C2933.63 663.93 2934.28 664.578 2935.08 664.578H2939.67C2939.92 664.578 2940.12 664.778 2940.12 665.025V665.294C2940.12 665.541 2939.92 665.741 2939.67 665.741H2935.08ZM2956.18 649.155C2958.55 649.155 2960.47 647.236 2960.47 644.87C2960.47 642.503 2958.55 640.585 2956.18 640.585C2953.82 640.585 2951.9 642.503 2951.9 644.87C2951.9 647.236 2953.82 649.155 2956.18 649.155Z" stroke="black"/>
</g>
<g id="Regular-S">
<path id="Subtract_2" d="M1406.5 650.858C1406.5 643.908 1412.13 638.274 1419.08 638.274C1423.8 638.274 1428.18 635.83 1430.65 631.816L1432.06 629.52C1433.6 627.022 1436.33 625.5 1439.26 625.5H1460.74C1463.67 625.5 1466.4 627.022 1467.94 629.52L1469.35 631.816C1471.82 635.83 1476.2 638.274 1480.92 638.274C1487.87 638.274 1493.5 643.908 1493.5 650.858V671.028C1493.5 675.899 1493.5 679.516 1493.22 682.36C1492.95 685.197 1492.4 687.212 1491.35 688.894C1490.22 690.681 1488.71 692.192 1486.93 693.314C1485.24 694.371 1483.23 694.916 1480.39 695.191C1477.55 695.467 1473.93 695.468 1469.06 695.468H1430.94C1426.07 695.468 1422.45 695.467 1419.61 695.191C1416.77 694.916 1414.76 694.371 1413.07 693.314C1411.29 692.192 1409.78 690.681 1408.65 688.894C1407.6 687.212 1407.05 685.197 1406.78 682.36C1406.5 679.516 1406.5 675.899 1406.5 671.028V650.858ZM1434.17 665.232C1432.24 667.242 1431.05 670.02 1431.05 673.083C1431.05 679.194 1435.8 684.183 1441.71 684.183C1445.06 684.183 1448.05 682.577 1450 680.076C1451.95 682.577 1454.93 684.183 1458.28 684.183C1464.19 684.183 1468.95 679.194 1468.95 673.083C1468.95 670.02 1467.76 667.242 1465.82 665.232C1467.76 663.221 1468.95 660.444 1468.95 657.381C1468.95 651.27 1464.19 646.281 1458.28 646.281C1454.93 646.281 1451.95 647.887 1450 650.388C1448.05 647.887 1445.06 646.281 1441.71 646.281C1435.8 646.281 1431.05 651.27 1431.05 657.381C1431.05 660.444 1432.24 663.221 1434.17 665.232ZM1452.08 665.741C1451.28 665.741 1450.63 666.389 1450.63 667.188L1450.63 671.781C1450.63 672.028 1450.43 672.229 1450.18 672.229H1449.92C1449.67 672.229 1449.47 672.028 1449.47 671.781V667.188C1449.47 666.389 1448.82 665.741 1448.02 665.741H1443.43C1443.18 665.741 1442.98 665.541 1442.98 665.294V665.025C1442.98 664.778 1443.18 664.578 1443.43 664.578L1448.02 664.578C1448.82 664.578 1449.47 663.93 1449.47 663.131V658.536C1449.47 658.289 1449.67 658.089 1449.92 658.089H1450.18C1450.43 658.089 1450.63 658.289 1450.63 658.536V663.131C1450.63 663.93 1451.28 664.578 1452.08 664.578H1456.67C1456.92 664.578 1457.12 664.778 1457.12 665.025V665.294C1457.12 665.541 1456.92 665.741 1456.67 665.741H1452.08ZM1473.18 649.155C1475.55 649.155 1477.47 647.236 1477.47 644.87C1477.47 642.503 1475.55 640.585 1473.18 640.585C1470.82 640.585 1468.9 642.503 1468.9 644.87C1468.9 647.236 1470.82 649.155 1473.18 649.155Z" stroke="black"/>
</g>
<g id="Ultralight-S">
<path id="Subtract_3" d="M515.5 650.858C515.5 643.908 521.134 638.274 528.084 638.274C532.798 638.274 537.176 635.83 539.648 631.816L541.063 629.52C542.602 627.022 545.327 625.5 548.261 625.5H569.739C572.673 625.5 575.398 627.022 576.937 629.52L578.351 631.816C580.824 635.83 585.202 638.274 589.916 638.274C596.866 638.274 602.5 643.908 602.5 650.858V671.028C602.5 675.899 602.499 679.516 602.224 682.36C601.948 685.197 601.403 687.212 600.347 688.894C599.224 690.681 597.713 692.192 595.926 693.314C594.244 694.371 592.229 694.916 589.393 695.191C586.548 695.467 582.931 695.468 578.06 695.468H539.94C535.069 695.468 531.452 695.467 528.607 695.191C525.771 694.916 523.756 694.371 522.074 693.314C520.287 692.192 518.776 690.681 517.653 688.894C516.597 687.212 516.052 685.197 515.776 682.36C515.501 679.516 515.5 675.899 515.5 671.028V650.858ZM543.174 665.232C541.24 667.242 540.047 670.02 540.047 673.083C540.047 679.194 544.803 684.183 550.714 684.183C554.064 684.183 557.047 682.577 558.999 680.076C560.951 682.577 563.934 684.183 567.284 684.183C573.194 684.183 577.951 679.194 577.951 673.083C577.951 670.02 576.757 667.242 574.824 665.232C576.757 663.221 577.951 660.444 577.951 657.381C577.951 651.27 573.194 646.281 567.284 646.281C563.934 646.281 560.951 647.887 558.999 650.388C557.047 647.887 554.064 646.281 550.714 646.281C544.803 646.281 540.047 651.27 540.047 657.381C540.047 660.444 541.24 663.221 543.174 665.232ZM561.078 665.741C560.279 665.741 559.631 666.389 559.631 667.188L559.631 671.781C559.631 672.028 559.43 672.229 559.183 672.229H558.915C558.668 672.229 558.468 672.028 558.468 671.781V667.188C558.468 666.389 557.82 665.741 557.021 665.741H552.428C552.181 665.741 551.98 665.541 551.98 665.294V665.025C551.98 664.778 552.181 664.578 552.428 664.578L557.021 664.578C557.82 664.578 558.468 663.93 558.468 663.131V658.536C558.468 658.289 558.668 658.089 558.915 658.089H559.184C559.43 658.089 559.631 658.289 559.631 658.536V663.131C559.631 663.93 560.279 664.578 561.078 664.578H565.673C565.92 664.578 566.12 664.778 566.12 665.025V665.294C566.12 665.541 565.92 665.741 565.673 665.741H561.078ZM582.184 649.155C584.551 649.155 586.469 647.236 586.469 644.87C586.469 642.503 584.551 640.585 582.184 640.585C579.818 640.585 577.899 642.503 577.899 644.87C577.899 647.236 579.818 649.155 582.184 649.155Z" stroke="black"/>
</g>
</g>
</g>
<defs>
<clipPath id="clip0_178_4024">
<rect width="3300" height="2200" fill="white"/>
</clipPath>
</defs>
</svg>
