<svg width="393" height="1680" viewBox="0 0 393 1680" fill="none" xmlns="http://www.w3.org/2000/svg">
<mask id="mask0_793_12203" style="mask-type:alpha" maskUnits="userSpaceOnUse" x="0" y="0" width="393" height="1680">
<rect width="393" height="1680" fill="#D9D9D9"/>
</mask>
<g mask="url(#mask0_793_12203)">
<rect y="1147" width="393" height="533" fill="white"/>
<g opacity="0.75">
<path fill-rule="evenodd" clip-rule="evenodd" d="M335.389 409.211C351.914 418.276 372.067 419.433 389.66 410.514C418.566 395.858 429.613 359.546 414.333 329.409C406.208 313.384 392.274 302.332 376.661 297.699C382.151 282.366 381.47 264.595 373.345 248.569C358.065 218.433 322.245 205.884 293.339 220.54C275.746 229.46 264.769 246.401 262.315 265.089C245.789 256.022 225.635 254.864 208.041 263.785C179.135 278.441 168.088 314.752 183.368 344.889C191.494 360.916 205.429 371.968 221.044 376.6C215.553 391.933 216.234 409.705 224.359 425.731C239.639 455.867 275.459 468.416 304.366 453.76C321.958 444.84 332.936 427.899 335.389 409.211Z" fill="url(#paint0_radial_793_12203)"/>
</g>
<path fill-rule="evenodd" clip-rule="evenodd" d="M302.062 335.788C301.688 335.049 301.983 334.146 302.722 333.772L321.036 324.484C321.775 324.11 322.07 323.207 321.696 322.468L321.117 321.327C320.743 320.589 319.84 320.293 319.101 320.668L300.786 329.956C300.047 330.33 299.145 330.035 298.77 329.296L289.483 310.982C289.108 310.243 288.206 309.948 287.467 310.323L286.326 310.901C285.587 311.276 285.292 312.179 285.667 312.917L294.954 331.231C295.329 331.97 295.033 332.873 294.295 333.248L275.982 342.534C275.243 342.909 274.948 343.811 275.323 344.55L275.901 345.691C276.276 346.43 277.178 346.725 277.917 346.35L296.23 337.064C296.969 336.689 297.871 336.984 298.246 337.723L307.533 356.037C307.907 356.775 308.81 357.071 309.549 356.696L310.69 356.118C311.428 355.743 311.724 354.84 311.349 354.101L302.062 335.788Z" fill="#B0FF9C" style="mix-blend-mode:lighten"/>
<rect y="492" width="393" height="678" fill="url(#paint1_linear_793_12203)"/>
<rect width="393" height="852" fill="url(#paint2_radial_793_12203)"/>
<circle cx="271.5" cy="384.5" r="151.5" fill="url(#paint3_radial_793_12203)"/>
<circle cx="325.5" cy="249.5" r="151.5" fill="url(#paint4_radial_793_12203)"/>
<ellipse cx="353" cy="170.5" rx="179" ry="183.5" fill="url(#paint5_radial_793_12203)"/>
<circle opacity="0.8" cx="283" cy="205" r="72" fill="url(#paint6_radial_793_12203)"/>
<ellipse cx="373.667" cy="347.761" rx="185.072" ry="179.161" transform="rotate(17.147 373.667 347.761)" fill="url(#paint7_radial_793_12203)"/>
<circle opacity="0.7" cx="215.132" cy="464.132" r="57.8677" transform="rotate(-30.227 215.132 464.132)" fill="url(#paint8_radial_793_12203)"/>
<g opacity="0.75">
<path fill-rule="evenodd" clip-rule="evenodd" d="M335.389 409.211C351.914 418.276 372.067 419.433 389.66 410.514C418.566 395.858 429.613 359.546 414.333 329.409C406.208 313.384 392.274 302.332 376.661 297.699C382.151 282.366 381.47 264.595 373.345 248.569C358.065 218.433 322.245 205.884 293.339 220.54C275.746 229.46 264.769 246.401 262.315 265.089C245.789 256.022 225.635 254.864 208.041 263.785C179.135 278.441 168.088 314.752 183.368 344.889C191.494 360.916 205.429 371.968 221.044 376.6C215.553 391.933 216.234 409.705 224.359 425.731C239.639 455.867 275.459 468.416 304.366 453.76C321.958 444.84 332.936 427.899 335.389 409.211Z" fill="url(#paint9_radial_793_12203)"/>
</g>
<path fill-rule="evenodd" clip-rule="evenodd" d="M302.062 335.788C301.688 335.049 301.983 334.146 302.722 333.772L321.036 324.484C321.775 324.11 322.07 323.207 321.696 322.468L321.117 321.327C320.743 320.589 319.84 320.293 319.101 320.668L300.786 329.956C300.047 330.33 299.145 330.035 298.77 329.296L289.483 310.982C289.108 310.243 288.206 309.948 287.467 310.323L286.326 310.901C285.587 311.276 285.292 312.179 285.667 312.917L294.954 331.231C295.329 331.97 295.033 332.873 294.295 333.248L275.982 342.534C275.243 342.909 274.948 343.811 275.323 344.55L275.901 345.691C276.276 346.43 277.178 346.725 277.917 346.35L296.23 337.064C296.969 336.689 297.871 336.984 298.246 337.723L307.533 356.037C307.907 356.775 308.81 357.071 309.549 356.696L310.69 356.118C311.428 355.743 311.724 354.84 311.349 354.101L302.062 335.788Z" fill="#B0FF9C" style="mix-blend-mode:lighten"/>
<ellipse cx="196.5" cy="1169" rx="256.5" ry="106" fill="url(#paint10_linear_793_12203)"/>
</g>
<defs>
<radialGradient id="paint0_radial_793_12203" cx="0" cy="0" r="1" gradientUnits="userSpaceOnUse" gradientTransform="translate(298.851 337.149) rotate(135) scale(122.118 122.118)">
<stop stop-color="#00F845" stop-opacity="0.4"/>
<stop offset="1" stop-color="#F9FFAF"/>
</radialGradient>
<linearGradient id="paint1_linear_793_12203" x1="185.5" y1="492" x2="348.134" y2="1213.74" gradientUnits="userSpaceOnUse">
<stop stop-color="#FFF9DA" stop-opacity="0"/>
<stop offset="0.165" stop-color="#E6FCC3"/>
</linearGradient>
<radialGradient id="paint2_radial_793_12203" cx="0" cy="0" r="1" gradientUnits="userSpaceOnUse" gradientTransform="translate(270 399) rotate(-116.45) scale(445.649 417.385)">
<stop stop-color="#CCFF79"/>
<stop offset="1" stop-color="white" stop-opacity="0"/>
</radialGradient>
<radialGradient id="paint3_radial_793_12203" cx="0" cy="0" r="1" gradientUnits="userSpaceOnUse" gradientTransform="translate(271.5 384.5) rotate(90) scale(151.5)">
<stop stop-color="#56FF9B"/>
<stop offset="1" stop-color="#AFFFD0" stop-opacity="0"/>
</radialGradient>
<radialGradient id="paint4_radial_793_12203" cx="0" cy="0" r="1" gradientUnits="userSpaceOnUse" gradientTransform="translate(325.5 249.5) rotate(90) scale(151.5)">
<stop stop-color="#00E6AF"/>
<stop offset="1" stop-color="#AFFFD0" stop-opacity="0"/>
</radialGradient>
<radialGradient id="paint5_radial_793_12203" cx="0" cy="0" r="1" gradientUnits="userSpaceOnUse" gradientTransform="translate(353 170.5) rotate(90) scale(183.5 179)">
<stop stop-color="#FFE6A5"/>
<stop offset="1" stop-color="#FFF0C9" stop-opacity="0"/>
</radialGradient>
<radialGradient id="paint6_radial_793_12203" cx="0" cy="0" r="1" gradientUnits="userSpaceOnUse" gradientTransform="translate(254.5 167) rotate(52.6082) scale(98.8041)">
<stop stop-color="#B8FF9F" stop-opacity="0.6"/>
<stop offset="1" stop-color="#A2FFC2"/>
</radialGradient>
<radialGradient id="paint7_radial_793_12203" cx="0" cy="0" r="1" gradientUnits="userSpaceOnUse" gradientTransform="translate(360.948 376.411) rotate(85.1699) scale(151.047 155.961)">
<stop stop-color="#00E9DB"/>
<stop offset="1" stop-color="#C4FFAF" stop-opacity="0"/>
</radialGradient>
<radialGradient id="paint8_radial_793_12203" cx="0" cy="0" r="1" gradientUnits="userSpaceOnUse" gradientTransform="translate(249.184 494.814) rotate(-165.331) scale(91.3469 118.237)">
<stop stop-color="#E3FF95"/>
<stop offset="1" stop-color="#FFEDAC"/>
</radialGradient>
<radialGradient id="paint9_radial_793_12203" cx="0" cy="0" r="1" gradientUnits="userSpaceOnUse" gradientTransform="translate(298.851 337.149) rotate(135) scale(122.118 122.118)">
<stop stop-color="#00F845" stop-opacity="0.4"/>
<stop offset="1" stop-color="#F9FFAF"/>
</radialGradient>
<linearGradient id="paint10_linear_793_12203" x1="196.5" y1="1063" x2="196.5" y2="1275" gradientUnits="userSpaceOnUse">
<stop stop-color="white"/>
<stop offset="1" stop-color="white"/>
</linearGradient>
</defs>
</svg>
