<svg width="25" height="25" viewBox="0 0 25 25" fill="none" xmlns="http://www.w3.org/2000/svg">
<path fill-rule="evenodd" clip-rule="evenodd" d="M17.8878 0.5C15.6652 0.5 13.6988 1.64323 12.5 3.3964C11.3012 1.64323 9.33471 0.499999 7.11215 0.499999C3.46033 0.499999 0.499943 3.58632 0.499942 7.3935C0.499942 9.41807 1.3371 11.2388 2.67022 12.4999C1.3371 13.7611 0.499942 15.5818 0.499942 17.6064C0.499942 21.4136 3.46033 24.4999 7.11215 24.4999C9.33471 24.4999 11.3012 23.3567 12.5 21.6035C13.6988 23.3567 15.6652 24.4999 17.8878 24.4999C21.5396 24.4999 24.5 21.4136 24.5 17.6064C24.5 15.5818 23.6628 13.7611 22.3297 12.5C23.6628 11.2388 24.5 9.41807 24.5 7.3935C24.5 3.58632 21.5396 0.5 17.8878 0.5Z" fill="#00C573"/>
<path fill-rule="evenodd" clip-rule="evenodd" d="M13 13.4297C13 13.1924 13.1924 13 13.4297 13L16.5703 13C16.8076 13 17 12.8076 17 12.5703L17 12.4297C17 12.1924 16.8076 12 16.5703 12L13.4297 12C13.1924 12 13 11.8076 13 11.5703L13 8.42971C13 8.19239 12.8076 8 12.5703 8L12.4297 8C12.1924 8 12 8.19239 12 8.42971L12 11.5703C12 11.8076 11.8076 12 11.5703 12L8.42971 12C8.19239 12 8 12.1924 8 12.4297L8 12.5703C8 12.8076 8.19239 13 8.42971 13L11.5703 13C11.8076 13 12 13.1924 12 13.4297L12 16.5703C12 16.8076 12.1924 17 12.4297 17L12.5703 17C12.8076 17 13 16.8076 13 16.5703L13 13.4297Z" fill="white"/>
</svg>
