<svg width="3300" height="2200" viewBox="0 0 3300 2200" fill="none" xmlns="http://www.w3.org/2000/svg">
<g id="allTodo" clip-path="url(#clip0_171_3260)">
<g id="Notes">
<path id="artboard" d="M3300 0H0V2200H3300V0Z" fill="white"/>
<path id="Vector" d="M263 292H3036" stroke="black" stroke-width="0.5"/>
<text id="Weight/Scale Variations" fill="black" xml:space="preserve" style="white-space: pre" font-family="Inter" font-size="13" font-weight="bold" letter-spacing="0em"><tspan x="263" y="321.727">Weight/Scale Variations</tspan></text>
<text id="Ultralight" fill="black" xml:space="preserve" style="white-space: pre" font-family="Inter" font-size="13" letter-spacing="0em"><tspan x="531.211" y="321.727">Ultralight</tspan></text>
<text id="Thin" fill="black" xml:space="preserve" style="white-space: pre" font-family="Inter" font-size="13" letter-spacing="0em"><tspan x="842.922" y="321.727">Thin</tspan></text>
<text id="Light" fill="black" xml:space="preserve" style="white-space: pre" font-family="Inter" font-size="13" letter-spacing="0em"><tspan x="1137.63" y="321.727">Light</tspan></text>
<text id="Regular" fill="black" xml:space="preserve" style="white-space: pre" font-family="Inter" font-size="13" letter-spacing="0em"><tspan x="1426.34" y="321.727">Regular</tspan></text>
<text id="Medium" fill="black" xml:space="preserve" style="white-space: pre" font-family="Inter" font-size="13" letter-spacing="0em"><tspan x="1721.56" y="321.727">Medium</tspan></text>
<text id="Semibold" fill="black" xml:space="preserve" style="white-space: pre" font-family="Inter" font-size="13" letter-spacing="0em"><tspan x="2014.27" y="321.727">Semibold</tspan></text>
<text id="Bold" fill="black" xml:space="preserve" style="white-space: pre" font-family="Inter" font-size="13" letter-spacing="0em"><tspan x="2325.98" y="321.727">Bold</tspan></text>
<text id="Heavy" fill="black" xml:space="preserve" style="white-space: pre" font-family="Inter" font-size="13" letter-spacing="0em"><tspan x="2617.19" y="321.727">Heavy</tspan></text>
<text id="Black" fill="black" xml:space="preserve" style="white-space: pre" font-family="Inter" font-size="13" letter-spacing="0em"><tspan x="2916.4" y="321.727">Black</tspan></text>
<path id="Vector_2" d="M263 1903H3036" stroke="black" stroke-width="0.5"/>
<g id="Group">
<path id="Vector_3" d="M272.248 1933.83C276.555 1933.83 280.139 1930.26 280.139 1925.95C280.139 1921.64 276.545 1918.07 272.238 1918.07C267.941 1918.07 264.367 1921.64 264.367 1925.95C264.367 1930.26 267.951 1933.83 272.248 1933.83ZM272.248 1932.35C268.703 1932.35 265.871 1929.5 265.871 1925.95C265.871 1922.39 268.693 1919.55 272.238 1919.55C275.793 1919.55 278.645 1922.39 278.645 1925.95C278.645 1929.5 275.803 1932.35 272.248 1932.35ZM268.654 1925.95C268.654 1926.38 268.957 1926.67 269.406 1926.67H271.506V1928.79C271.506 1929.23 271.799 1929.53 272.229 1929.53C272.678 1929.53 272.971 1929.23 272.971 1928.79V1926.67H275.09C275.529 1926.67 275.832 1926.38 275.832 1925.95C275.832 1925.51 275.529 1925.21 275.09 1925.21H272.971V1923.1C272.971 1922.65 272.678 1922.35 272.229 1922.35C271.799 1922.35 271.506 1922.65 271.506 1923.1V1925.21H269.406C268.957 1925.21 268.654 1925.51 268.654 1925.95Z" fill="black"/>
</g>
<g id="Group_2">
<path id="Vector_4" d="M293.215 1935.91C298.664 1935.91 303.176 1931.39 303.176 1925.95C303.176 1920.5 298.654 1915.99 293.205 1915.99C287.766 1915.99 283.254 1920.5 283.254 1925.95C283.254 1931.39 287.775 1935.91 293.215 1935.91ZM293.215 1934.25C288.605 1934.25 284.924 1930.56 284.924 1925.95C284.924 1921.34 288.596 1917.65 293.205 1917.65C297.814 1917.65 301.516 1921.34 301.516 1925.95C301.516 1930.56 297.824 1934.25 293.215 1934.25ZM288.684 1925.95C288.684 1926.43 289.016 1926.75 289.514 1926.75H292.385V1929.63C292.385 1930.12 292.717 1930.46 293.195 1930.46C293.684 1930.46 294.025 1930.13 294.025 1929.63V1926.75H296.906C297.395 1926.75 297.736 1926.43 297.736 1925.95C297.736 1925.46 297.395 1925.12 296.906 1925.12H294.025V1922.25C294.025 1921.75 293.684 1921.41 293.195 1921.41C292.717 1921.41 292.385 1921.75 292.385 1922.25V1925.12H289.514C289.016 1925.12 288.684 1925.46 288.684 1925.95Z" fill="black"/>
</g>
<g id="Group_3">
<path id="Vector_5" d="M319.895 1938.66C326.857 1938.66 332.619 1932.9 332.619 1925.95C332.619 1918.99 326.848 1913.22 319.885 1913.22C312.932 1913.22 307.18 1918.99 307.18 1925.95C307.18 1932.9 312.941 1938.66 319.895 1938.66ZM319.895 1936.85C313.859 1936.85 309.006 1931.98 309.006 1925.95C309.006 1919.9 313.85 1915.05 319.885 1915.05C325.93 1915.05 330.793 1919.9 330.793 1925.95C330.793 1931.98 325.939 1936.85 319.895 1936.85ZM314.123 1925.95C314.123 1926.47 314.494 1926.83 315.041 1926.83H318.986V1930.78C318.986 1931.32 319.357 1931.7 319.875 1931.7C320.412 1931.7 320.783 1931.33 320.783 1930.78V1926.83H324.738C325.275 1926.83 325.656 1926.47 325.656 1925.95C325.656 1925.4 325.285 1925.03 324.738 1925.03H320.783V1921.09C320.783 1920.54 320.412 1920.16 319.875 1920.16C319.357 1920.16 318.986 1920.54 318.986 1921.09V1925.03H315.041C314.494 1925.03 314.123 1925.4 314.123 1925.95Z" fill="black"/>
</g>
<text id="Design Variations" fill="black" xml:space="preserve" style="white-space: pre" font-family="Inter" font-size="13" font-weight="bold" letter-spacing="0em"><tspan x="263" y="1952.73">Design Variations</tspan></text>
<text id="Symbols are supported in up to nine weights and three scales." fill="black" xml:space="preserve" style="white-space: pre" font-family="Inter" font-size="13" letter-spacing="0em"><tspan x="263" y="1970.73">Symbols are supported in up to nine weights and three scales.</tspan></text>
<text id="For optimal layout with text and other symbols, vertically align" fill="black" xml:space="preserve" style="white-space: pre" font-family="Inter" font-size="13" letter-spacing="0em"><tspan x="263" y="1988.73">For optimal layout with text and other symbols, vertically align</tspan></text>
<text id="symbols with the adjacent text." fill="black" xml:space="preserve" style="white-space: pre" font-family="Inter" font-size="13" letter-spacing="0em"><tspan x="263" y="2006.73">symbols with the adjacent text.</tspan></text>
<path id="Vector_6" d="M776 1919V1933" stroke="#00AEEF" stroke-width="0.5"/>
<g id="Group_4">
<path id="Vector_7" d="M779.311 1933.16C779.828 1933.16 780.082 1932.96 780.268 1932.41L781.527 1928.97H787.289L788.549 1932.41C788.734 1932.96 788.988 1933.16 789.496 1933.16C790.014 1933.16 790.346 1932.84 790.346 1932.36C790.346 1932.19 790.316 1932.03 790.238 1931.83L785.658 1919.63C785.434 1919.04 785.033 1918.73 784.408 1918.73C783.803 1918.73 783.393 1919.03 783.178 1919.62L778.598 1931.84C778.52 1932.04 778.49 1932.2 778.49 1932.37C778.49 1932.85 778.803 1933.16 779.311 1933.16ZM782.006 1927.48L784.379 1920.91H784.428L786.801 1927.48H782.006Z" fill="black"/>
</g>
<path id="Vector_8" d="M792.836 1919V1933" stroke="#00AEEF" stroke-width="0.5"/>
<text id="Margins" fill="black" xml:space="preserve" style="white-space: pre" font-family="Inter" font-size="13" font-weight="bold" letter-spacing="0em"><tspan x="776" y="1952.73">Margins</tspan></text>
<text id="Leading and trailing margins on the left and right side of each symbol" fill="black" xml:space="preserve" style="white-space: pre" font-family="Inter" font-size="13" letter-spacing="0em"><tspan x="776" y="1970.73">Leading and trailing margins on the left and right side of each symbol</tspan></text>
<text id="can be adjusted by modifying the x-location of the margin guidelines." fill="black" xml:space="preserve" style="white-space: pre" font-family="Inter" font-size="13" letter-spacing="0em"><tspan x="776" y="1988.73">can be adjusted by modifying the x-location of the margin guidelines.</tspan></text>
<text id="Modifications are automatically applied proportionally to all" fill="black" xml:space="preserve" style="white-space: pre" font-family="Inter" font-size="13" letter-spacing="0em"><tspan x="776" y="2006.73">Modifications are automatically applied proportionally to all</tspan></text>
<text id="scales and weights." fill="black" xml:space="preserve" style="white-space: pre" font-family="Inter" font-size="13" letter-spacing="0em"><tspan x="776" y="2024.73">scales and weights.</tspan></text>
<g id="Group_5">
<path id="Vector_9" d="M1291.84 1934.87L1293.54 1936.57C1294.4 1937.44 1295.39 1937.38 1296.31 1936.36L1307.01 1924.57L1306.04 1923.6L1295.43 1935.28C1295.07 1935.68 1294.74 1935.77 1294.27 1935.3L1293.1 1934.14C1292.63 1933.68 1292.74 1933.34 1293.14 1932.98L1304.62 1922.18L1303.64 1921.21L1292.05 1932.1C1291.06 1933.02 1290.98 1934 1291.84 1934.87ZM1298.26 1916.67C1297.84 1917.08 1297.81 1917.66 1298.04 1918.05C1298.28 1918.41 1298.74 1918.64 1299.38 1918.48C1300.85 1918.14 1302.37 1918.08 1303.79 1919.02L1303.21 1920.47C1302.87 1921.3 1303.04 1921.89 1303.58 1922.43L1305.87 1924.75C1306.36 1925.24 1306.77 1925.26 1307.34 1925.16L1308.4 1924.96L1309.07 1925.64L1309.03 1926.19C1308.99 1926.69 1309.12 1927.07 1309.61 1927.55L1310.37 1928.29C1310.85 1928.77 1311.46 1928.8 1311.93 1928.33L1314.84 1925.41C1315.31 1924.94 1315.29 1924.35 1314.81 1923.87L1314.04 1923.11C1313.56 1922.63 1313.19 1922.47 1312.71 1922.51L1312.13 1922.56L1311.49 1921.93L1311.73 1920.8C1311.86 1920.24 1311.71 1919.8 1311.12 1919.21L1308.92 1917.02C1305.58 1913.7 1301.15 1913.78 1298.26 1916.67ZM1299.75 1917.04C1302.18 1915.27 1305.47 1915.57 1307.7 1917.8L1310.13 1920.21C1310.37 1920.44 1310.41 1920.63 1310.34 1920.97L1310.02 1922.45L1311.52 1923.94L1312.51 1923.88C1312.76 1923.87 1312.84 1923.89 1313.03 1924.08L1313.61 1924.66L1311.17 1927.1L1310.59 1926.53C1310.4 1926.33 1310.37 1926.25 1310.38 1925.99L1310.45 1925.01L1308.95 1923.53L1307.43 1923.78C1307.11 1923.85 1306.96 1923.82 1306.71 1923.59L1304.71 1921.58C1304.46 1921.35 1304.43 1921.18 1304.59 1920.81L1305.46 1918.72C1303.9 1917.27 1301.87 1916.64 1299.84 1917.24C1299.68 1917.28 1299.62 1917.15 1299.75 1917.04Z" fill="black"/>
</g>
<text id="Exporting" fill="black" xml:space="preserve" style="white-space: pre" font-family="Inter" font-size="13" font-weight="bold" letter-spacing="0em"><tspan x="1289" y="1952.73">Exporting</tspan></text>
<text id="Symbols should be outlined when exporting to ensure the" fill="black" xml:space="preserve" style="white-space: pre" font-family="Inter" font-size="13" letter-spacing="0em"><tspan x="1289" y="1970.73">Symbols should be outlined when exporting to ensure the</tspan></text>
<text id="design is preserved when submitting to Xcode." fill="black" xml:space="preserve" style="white-space: pre" font-family="Inter" font-size="13" letter-spacing="0em"><tspan x="1289" y="1988.73">design is preserved when submitting to Xcode.</tspan></text>
<text id="template-version" fill="black" xml:space="preserve" style="white-space: pre" font-family="Inter" font-size="13" letter-spacing="0em"><tspan x="2946" y="1932.73">Template v.5.0</tspan></text>
<text id="Requires Xcode 15 or greater" fill="black" xml:space="preserve" style="white-space: pre" font-family="Inter" font-size="13" letter-spacing="0em"><tspan x="2858" y="1950.73">Requires Xcode 15 or greater</tspan></text>
<text id="descriptive-name" fill="black" xml:space="preserve" style="white-space: pre" font-family="Inter" font-size="13" letter-spacing="0em"><tspan x="2838" y="1968.73">Generated from square.grid.2x2</tspan></text>
<text id="Typeset at 100.0 points" fill="black" xml:space="preserve" style="white-space: pre" font-family="Inter" font-size="13" letter-spacing="0em"><tspan x="2892" y="1986.73">Typeset at 100.0 points</tspan></text>
<text id="Small" fill="black" xml:space="preserve" style="white-space: pre" font-family="Inter" font-size="13" letter-spacing="0em"><tspan x="263" y="725.727">Small</tspan></text>
<text id="Medium_2" fill="black" xml:space="preserve" style="white-space: pre" font-family="Inter" font-size="13" letter-spacing="0em"><tspan x="263" y="1155.73">Medium</tspan></text>
<text id="Large" fill="black" xml:space="preserve" style="white-space: pre" font-family="Inter" font-size="13" letter-spacing="0em"><tspan x="263" y="1585.73">Large</tspan></text>
</g>
<g id="Guides">
<g id="H-reference">
<path id="Vector_10" d="M339.994 696H342.638L368.329 628.868H369.031V625.541H367.123L339.994 696ZM350.689 671.52H385.982L385.232 669.272H351.439L350.689 671.52ZM394.12 696H396.764L369.639 625.541H368.433V628.868L394.12 696Z" fill="#27AAE1"/>
</g>
<path id="Baseline-S" d="M263 696H3036" stroke="#27AAE1" stroke-width="0.5"/>
<path id="Capline-S" d="M263 625.541H3036" stroke="#27AAE1" stroke-width="0.5"/>
<g id="H-reference_2">
<path id="Vector_11" d="M339.994 1126H342.638L368.329 1058.87H369.031V1055.54H367.123L339.994 1126ZM350.689 1101.52H385.982L385.232 1099.27H351.439L350.689 1101.52ZM394.12 1126H396.764L369.639 1055.54H368.433V1058.87L394.12 1126Z" fill="#27AAE1"/>
</g>
<path id="Baseline-M" d="M263 1126H3036" stroke="#27AAE1" stroke-width="0.5"/>
<path id="Capline-M" d="M263 1055.54H3036" stroke="#27AAE1" stroke-width="0.5"/>
<g id="H-reference_3">
<path id="Vector_12" d="M339.994 1556H342.638L368.329 1488.87H369.031V1485.54H367.123L339.994 1556ZM350.689 1531.52H385.982L385.232 1529.27H351.439L350.689 1531.52ZM394.12 1556H396.764L369.639 1485.54H368.433V1488.87L394.12 1556Z" fill="#27AAE1"/>
</g>
<path id="Baseline-L" d="M263 1556H3036" stroke="#27AAE1" stroke-width="0.5"/>
<path id="Capline-L" d="M263 1485.54H3036" stroke="#27AAE1" stroke-width="0.5"/>
<path id="left-margin-Ultralight-S" d="M516.35 600.785V720.121" stroke="#00AEEF" stroke-width="0.5"/>
<path id="right-margin-Ultralight-S" d="M603.073 600.785V720.121" stroke="#00AEEF" stroke-width="0.5"/>
<path id="left-margin-Regular-S" d="M1404.51 600.785V720.121" stroke="#00AEEF" stroke-width="0.5"/>
<path id="right-margin-Regular-S" d="M1495.18 600.785V720.121" stroke="#00AEEF" stroke-width="0.5"/>
<path id="left-margin-Black-S" d="M2885.5 600.785V720.121" stroke="#00AEEF" stroke-width="0.5"/>
<path id="right-margin-Black-S" d="M2981.3 600.785V720.121" stroke="#00AEEF" stroke-width="0.5"/>
</g>
<g id="Symbols">
<g id="Black-S">
<g id="Group 186">
<path id="Vector 95 (Stroke)" fill-rule="evenodd" clip-rule="evenodd" d="M2970.83 669.879C2972.21 671.028 2972.4 673.077 2971.25 674.456L2955 693.956C2954.41 694.658 2953.56 695.081 2952.65 695.122C2951.74 695.164 2950.85 694.819 2950.2 694.174L2938.83 682.799C2937.56 681.529 2937.56 679.472 2938.83 678.202C2940.1 676.933 2942.15 676.933 2943.42 678.202L2952.28 687.061L2966.25 670.295C2967.4 668.916 2969.45 668.73 2970.83 669.879Z" stroke="black" stroke-width="0.3" stroke-linecap="round" stroke-linejoin="round"/>
<path id="Vector_13" d="M2921.62 628.35H2902.12C2901.14 628.35 2900.35 629.145 2900.35 630.125V649.625C2900.35 650.606 2901.14 651.4 2902.13 651.4H2921.62C2922.61 651.4 2923.4 650.606 2923.4 649.625V630.125C2923.4 629.145 2922.61 628.35 2921.62 628.35ZM2894.15 628.5C2894.15 624.993 2896.99 622.15 2900.5 622.15H2923.25C2926.76 622.15 2929.6 624.993 2929.6 628.5V651.25C2929.6 654.757 2926.76 657.6 2923.25 657.6H2900.5C2896.99 657.6 2894.15 654.757 2894.15 651.25V628.5ZM2963.88 628.35H2944.38C2943.39 628.35 2942.6 629.145 2942.6 630.125V649.625C2942.6 650.606 2943.39 651.4 2944.38 651.4H2963.88C2964.86 651.4 2965.65 650.606 2965.65 649.625V630.125C2965.65 629.145 2964.86 628.35 2963.88 628.35ZM2936.4 628.5C2936.4 624.993 2939.24 622.15 2942.75 622.15H2965.5C2969.01 622.15 2971.85 624.993 2971.85 628.5V651.25C2971.85 654.757 2969.01 657.6 2965.5 657.6H2942.75C2939.24 657.6 2936.4 654.757 2936.4 651.25V628.5ZM2921.62 670.6H2902.12C2901.14 670.6 2900.35 671.395 2900.35 672.375V691.875C2900.35 692.856 2901.14 693.65 2902.13 693.65H2921.62C2922.61 693.65 2923.4 692.856 2923.4 691.875V672.375C2923.4 671.395 2922.61 670.6 2921.62 670.6ZM2894.15 670.75C2894.15 667.243 2896.99 664.4 2900.5 664.4H2923.25C2926.76 664.4 2929.6 667.243 2929.6 670.75V693.5C2929.6 697.007 2926.76 699.85 2923.25 699.85H2900.5C2896.99 699.85 2894.15 697.007 2894.15 693.5V670.75Z" stroke="black" stroke-width="0.3" stroke-linejoin="round"/>
</g>
</g>
<g id="Regular-S">
<g id="Group 186_2">
<path id="Vector 95 (Stroke)_2" fill-rule="evenodd" clip-rule="evenodd" d="M1487.83 669.878C1489.21 671.027 1489.4 673.077 1488.25 674.456L1472 693.956C1471.41 694.657 1470.56 695.08 1469.65 695.122C1468.74 695.163 1467.85 694.819 1467.2 694.173L1455.83 682.798C1454.56 681.529 1454.56 679.471 1455.83 678.202C1457.1 676.933 1459.15 676.933 1460.42 678.202L1469.28 687.06L1483.25 670.294C1484.4 668.916 1486.45 668.729 1487.83 669.878Z" stroke="black" stroke-width="0.3" stroke-linecap="round" stroke-linejoin="round"/>
<path id="Vector_14" d="M1438.62 628.35H1419.12C1418.14 628.35 1417.35 629.145 1417.35 630.125V649.625C1417.35 650.605 1418.14 651.4 1419.13 651.4H1438.62C1439.61 651.4 1440.4 650.605 1440.4 649.625V630.125C1440.4 629.145 1439.61 628.35 1438.62 628.35ZM1411.15 628.5C1411.15 624.993 1413.99 622.15 1417.5 622.15H1440.25C1443.76 622.15 1446.6 624.993 1446.6 628.5V651.25C1446.6 654.757 1443.76 657.6 1440.25 657.6H1417.5C1413.99 657.6 1411.15 654.757 1411.15 651.25V628.5ZM1480.88 628.35H1461.38C1460.39 628.35 1459.6 629.145 1459.6 630.125V649.625C1459.6 650.605 1460.39 651.4 1461.38 651.4H1480.88C1481.86 651.4 1482.65 650.605 1482.65 649.625V630.125C1482.65 629.145 1481.86 628.35 1480.88 628.35ZM1453.4 628.5C1453.4 624.993 1456.24 622.15 1459.75 622.15H1482.5C1486.01 622.15 1488.85 624.993 1488.85 628.5V651.25C1488.85 654.757 1486.01 657.6 1482.5 657.6H1459.75C1456.24 657.6 1453.4 654.757 1453.4 651.25V628.5ZM1438.62 670.6H1419.12C1418.14 670.6 1417.35 671.395 1417.35 672.375V691.875C1417.35 692.855 1418.14 693.65 1419.13 693.65H1438.62C1439.61 693.65 1440.4 692.855 1440.4 691.875V672.375C1440.4 671.395 1439.61 670.6 1438.62 670.6ZM1411.15 670.75C1411.15 667.243 1413.99 664.4 1417.5 664.4H1440.25C1443.76 664.4 1446.6 667.243 1446.6 670.75V693.5C1446.6 697.007 1443.76 699.85 1440.25 699.85H1417.5C1413.99 699.85 1411.15 697.007 1411.15 693.5V670.75Z" stroke="black" stroke-width="0.3" stroke-linejoin="round"/>
</g>
</g>
<g id="Ultralight-S">
<g id="Group 186_3">
<path id="Vector 95 (Stroke)_3" fill-rule="evenodd" clip-rule="evenodd" d="M597.831 669.878C599.21 671.027 599.396 673.077 598.247 674.456L581.997 693.956C581.412 694.657 580.559 695.08 579.647 695.122C578.735 695.163 577.848 694.819 577.202 694.173L565.827 682.798C564.558 681.529 564.558 679.471 565.827 678.202C567.096 676.933 569.154 676.933 570.423 678.202L579.282 687.06L593.253 670.294C594.402 668.916 596.452 668.729 597.831 669.878Z" stroke="black" stroke-width="0.3" stroke-linecap="round" stroke-linejoin="round"/>
<path id="Vector_15" d="M548.625 628.35H529.125C528.145 628.35 527.35 629.145 527.35 630.125V649.625C527.35 650.605 528.145 651.4 529.125 651.4H548.625C549.605 651.4 550.4 650.605 550.4 649.625V630.125C550.4 629.145 549.605 628.35 548.625 628.35ZM521.15 628.5C521.15 624.993 523.993 622.15 527.5 622.15H550.25C553.757 622.15 556.6 624.993 556.6 628.5V651.25C556.6 654.757 553.757 657.6 550.25 657.6H527.5C523.993 657.6 521.15 654.757 521.15 651.25V628.5ZM590.875 628.35H571.375C570.395 628.35 569.6 629.145 569.6 630.125V649.625C569.6 650.605 570.395 651.4 571.375 651.4H590.875C591.855 651.4 592.65 650.605 592.65 649.625V630.125C592.65 629.145 591.855 628.35 590.875 628.35ZM563.4 628.5C563.4 624.993 566.243 622.15 569.75 622.15H592.5C596.007 622.15 598.85 624.993 598.85 628.5V651.25C598.85 654.757 596.007 657.6 592.5 657.6H569.75C566.243 657.6 563.4 654.757 563.4 651.25V628.5ZM548.625 670.6H529.125C528.145 670.6 527.35 671.395 527.35 672.375V691.875C527.35 692.855 528.145 693.65 529.125 693.65H548.625C549.605 693.65 550.4 692.855 550.4 691.875V672.375C550.4 671.395 549.605 670.6 548.625 670.6ZM521.15 670.75C521.15 667.243 523.993 664.4 527.5 664.4H550.25C553.757 664.4 556.6 667.243 556.6 670.75V693.5C556.6 697.007 553.757 699.85 550.25 699.85H527.5C523.993 699.85 521.15 697.007 521.15 693.5V670.75Z" stroke="black" stroke-width="0.3" stroke-linejoin="round"/>
</g>
</g>
</g>
</g>
<defs>
<clipPath id="clip0_171_3260">
<rect width="3300" height="2200" fill="white"/>
</clipPath>
</defs>
</svg>
